<?xml version="1.0" encoding="UTF-8" standalone="no" ?>
<!DOCTYPE svg PUBLIC "-//W3C//DTD SVG 1.1//EN" "http://www.w3.org/Graphics/SVG/1.1/DTD/svg11.dtd">
<svg xmlns="http://www.w3.org/2000/svg" xmlns:xlink="http://www.w3.org/1999/xlink" version="1.1" width="1080" height="1080" viewBox="0 0 1080 1080" xml:space="preserve">
<desc>Created with Fabric.js 5.2.4</desc>
<defs>
</defs>
<rect x="0" y="0" width="100%" height="100%" fill="transparent"></rect>
<g transform="matrix(1 0 0 1 540 540)" id="9dfcba72-a802-4e20-816a-cb1623eae126"  >
</g>
<g transform="matrix(1 0 0 1 540 540)" id="98d35f23-6cb9-4b1f-8039-cad87acffcb0"  >
<rect style="stroke: none; stroke-width: 1; stroke-dasharray: none; stroke-linecap: butt; stroke-dashoffset: 0; stroke-linejoin: miter; stroke-miterlimit: 4; fill: rgb(255,255,255); fill-rule: nonzero; opacity: 1; visibility: hidden;" vector-effect="non-scaling-stroke"  x="-540" y="-540" rx="0" ry="0" width="1080" height="1080" />
</g>
<g transform="matrix(-1.13 0 0 1 404.1 521.74)"  >
<g style="" vector-effect="non-scaling-stroke"   >
		<g transform="matrix(1 0 0 1 0 0)" clip-path="url(#CLIPPATH_9)"  >
<clipPath id="CLIPPATH_9" >
	<rect transform="matrix(-0.95 0.31 0.31 0.95 -8.21 -13.8)" id="clip0_1_11503" x="-165.19" y="-98.09" rx="0" ry="0" width="330.38" height="196.18" />
</clipPath>
<path style="stroke: none; stroke-width: 1; stroke-dasharray: none; stroke-linecap: butt; stroke-dashoffset: 0; stroke-linejoin: miter; stroke-miterlimit: 4; fill: rgb(68,67,81); fill-rule: nonzero; opacity: 1;" vector-effect="non-scaling-stroke"  transform=" translate(-195.56, -157.93)" d="M 60.25 287.318 C 78.3635 261.698 106.853 247.052 134.701 234.02 C 133.032 226.698 133.844 219.161 137.383 212.447 C 141.761 204.145 150.087 199.826 156.251 193.105 C 156.595 192.728 157.203 192.963 157.252 193.457 C 158.003 200.478 158.787 207.776 156.688 214.655 C 154.849 220.697 150.77 224.264 146.557 228.516 C 162.929 220.898 179.274 212.99 194.016 202.489 C 197.982 199.668 201.79 196.632 205.469 193.439 C 205.523 193.366 205.58 193.303 205.634 193.23 C 205.578 193.16 205.539 193.073 205.49 192.989 C 205.417 193.345 204.964 193.624 204.583 193.338 C 199.089 189.134 195.667 182.767 195.236 175.842 C 194.682 166.963 200.308 160.018 203.043 151.981 C 203.204 151.519 203.772 151.357 204.085 151.777 C 209.097 158.605 214.635 166.271 214.701 175.119 C 214.746 180.674 212.413 185.735 209.189 190.133 C 209.64 189.71 210.078 189.281 210.519 188.861 C 216.154 181.636 219.168 173.332 219.972 164.125 C 219.991 163.909 220.344 163.938 220.345 164.148 C 220.361 171.64 218.202 178.815 214.354 185.086 C 217.156 182.231 219.862 179.286 222.439 176.216 C 224.469 170.013 225.746 163.742 225.531 157.146 C 225.372 152.436 224.652 153.499 221.633 156.336 C 218.564 159.221 214.531 162.075 214.244 166.674 C 214.216 167.204 213.401 167.29 213.397 166.727 C 213.298 160.248 221.058 155.414 225.208 151.515 C 225.548 151.195 226.076 151.356 226.132 151.836 C 227.092 159.676 226.383 167.6 223.499 174.933 C 225.871 172.051 228.15 169.088 230.31 166.032 C 233.295 161.822 235.955 157.497 238.378 153.093 C 238.921 151.722 239.604 150.438 240.426 149.242 C 246.933 136.553 251.642 123.172 256.239 109.373 C 246.523 111.827 236.742 111.645 227.096 108.828 C 227.009 108.801 226.933 108.77 226.873 108.723 C 206.472 106.382 190.503 91.1038 184.954 71.5715 C 184.758 70.86 185.526 70.4235 186.086 70.8183 C 191.261 74.5157 197.281 73.7986 203.238 73.8108 C 198.393 70.1062 193.418 67.5402 187.341 66.0608 C 186.859 65.9399 187.012 65.2148 187.509 65.3092 C 193.675 66.4494 199.791 69.422 204.319 73.8269 C 204.699 73.8369 205.069 73.8501 205.449 73.8601 C 204.192 70.6901 202.18 68.9597 201.923 65.0787 C 201.566 59.8239 201.753 55.1904 199.977 50.0731 C 199.831 49.6553 200.24 49.1024 200.699 49.253 C 208.214 51.6513 219.036 53.2355 224.287 59.8427 C 225.212 55.159 226.15 50.5153 225.806 45.6105 C 225.773 45.1337 226.334 44.7088 226.776 44.9759 C 232.188 48.2755 236.969 52.3994 241.006 57.1732 C 237.502 49.2151 232.568 42.3174 226.231 36.2272 C 225.97 35.9684 226.334 35.5517 226.616 35.8041 C 233.547 42.0894 238.727 49.8489 242.117 58.5192 C 242.566 59.0829 243.017 59.6567 243.449 60.237 C 241.981 54.9425 242.711 49.314 245.777 44.6356 C 250.001 38.188 257.533 34.9116 261.264 28.0364 C 261.431 27.728 261.929 27.5557 262.193 27.8579 C 268.813 35.3735 272.738 44.9448 272.173 55.0266 C 272.418 54.8588 272.666 54.7011 272.911 54.5333 C 272.879 54.433 272.866 54.3263 272.918 54.2101 C 275.754 47.3471 280.065 41.5133 285.704 36.7675 C 283.721 36.5669 282.721 34.0556 283.315 32.2914 C 284.104 29.9657 287.179 28.573 289.477 29.2696 C 291.592 29.9146 292.308 32.54 291.323 34.3974 C 290.505 35.9131 288.718 36.524 287.079 36.2564 C 281.448 41.0222 277.062 46.9686 274.136 53.7276 C 279.116 50.5788 284.622 48.1344 289.998 45.7989 C 290.299 45.6682 290.744 45.8787 290.815 46.1992 C 291.151 47.6517 291.404 49.1201 291.614 50.5915 C 296.145 47.5654 300.749 44.66 305.435 41.8719 C 305.844 41.6289 306.282 41.886 306.348 42.3297 C 307.572 50.0613 307.665 58.2029 305.472 65.7879 C 305.93 65.662 306.395 65.5561 306.843 65.4334 C 310.967 60.0145 316.384 55.75 322.794 53.3568 C 321.858 52.4522 321.728 50.7117 322.362 49.5876 C 323.53 47.5051 326.603 47.3087 328.522 48.3385 C 330.4 49.348 331.821 51.7563 330.355 53.7029 C 328.572 56.0732 325.462 55.0963 323.251 54.0506 C 323.198 54.0235 323.155 53.9931 323.122 53.9595 C 323.112 53.9627 323.095 53.9792 323.085 53.9825 C 317.26 56.5407 312.279 60.166 308.317 65.0564 C 311.547 64.3116 314.833 63.8138 318.035 63.4653 C 318.743 63.3915 318.975 64.2133 318.634 64.7001 C 314.79 70.1281 313.609 76.5557 311.157 82.619 C 309.21 87.4338 306.291 91.7435 302.511 95.3127 C 295.841 101.599 286.889 105.423 277.711 105.322 C 277.832 105.56 277.802 105.88 277.541 106.031 C 271.409 109.729 264.505 110.665 257.684 108.629 C 257.655 108.849 257.516 109.038 257.242 109.115 C 257.182 109.135 257.118 109.144 257.058 109.164 C 253.305 121.627 249.404 133.772 243.914 145.391 C 245.236 144.266 246.689 143.276 248.294 142.48 C 251.414 140.918 254.874 140.098 258.336 139.799 C 263.353 139.373 268.34 140.806 273.312 140.14 C 273.706 140.09 274.005 140.569 273.812 140.897 C 270.404 146.782 266.727 152.931 260.496 156.186 C 253.494 159.833 245.14 159.3 237.538 158.624 C 236.992 158.579 237.054 157.607 237.611 157.648 C 243.985 158.024 250.767 158.6 256.921 156.478 C 260.689 155.171 263.738 152.978 266.394 150.049 C 267.267 149.08 272.526 143.228 272.032 141.871 C 271.762 141.139 265.733 140.973 265.173 140.921 C 261.751 140.588 258.429 140.599 255.047 141.249 C 250.202 142.173 245.901 144.405 242.761 147.79 C 241.299 150.743 239.723 153.655 238.025 156.529 C 244.152 152.677 250.766 149.853 257.625 147.58 C 257.866 147.502 257.996 147.87 257.755 147.948 C 250.929 150.287 244.588 153.511 238.389 157.175 C 238.121 157.339 237.853 157.127 237.822 156.894 C 237.686 157.126 237.55 157.358 237.412 157.58 C 229.019 171.399 218.497 183.913 206.269 194.509 C 202.527 197.745 198.652 200.747 194.663 203.564 C 202.784 201.183 211.046 200.815 219.369 202.454 C 219.726 202.527 219.885 202.985 219.629 203.256 C 214.708 208.612 208.797 213.268 201.978 215.938 C 202.027 215.955 202.067 215.975 202.12 216.002 C 206.22 218.121 209.423 221.481 213.868 222.99 C 214.394 223.174 214.517 223.898 213.934 224.12 C 199.782 229.414 178.467 234.909 168.589 219.168 C 148.763 229.441 127.811 237.809 108.315 248.695 C 107.742 249.013 107.182 249.338 106.612 249.666 C 114.213 246.19 123.539 243.696 131.868 244.359 C 139.387 244.951 144.355 251.506 151.713 252.526 C 152.306 252.612 152.349 253.395 151.939 253.705 C 137.784 264.581 116.546 266.131 104.644 251.055 C 104.588 250.985 104.575 250.911 104.586 250.841 C 87.9002 260.575 72.6454 272.405 60.9774 287.991 C 60.6058 288.488 59.8949 287.832 60.25 287.318 Z M 289.951 34.1655 C 290.815 33.1334 290.649 31.2492 289.361 30.6248 C 287.867 29.9119 285.553 30.8814 284.749 32.2373 C 284.142 33.275 284.402 34.3869 285.139 35.1231 C 285.187 34.9302 285.369 34.7719 285.589 34.8338 C 287.039 35.273 288.865 35.4689 289.951 34.1655 Z M 324.308 52.9669 C 324.517 53.0986 324.585 53.3092 324.56 53.5055 C 325.893 53.9604 327.428 54.3171 328.656 53.5547 C 330.4 52.4703 329.622 50.4741 328.139 49.5914 C 326.999 48.9084 325.345 48.7673 324.194 49.5269 C 322.862 50.4117 323.025 52.1525 324.308 52.9669 Z M 200.169 75.2568 C 195.389 75.3183 190.951 75.1695 186.853 72.9177 C 192.733 91.3133 207.662 104.436 226.674 107.968 C 226.735 107.816 226.853 107.667 227.044 107.572 C 231.095 105.664 235.235 104.481 239.476 103.985 C 223.581 98.471 206.538 91.7006 194.593 79.44 C 194.342 79.1779 194.689 78.7777 194.967 79.0201 C 208.413 90.6074 224.02 96.5687 240.275 103.062 C 240.631 103.202 240.644 103.619 240.467 103.897 C 241.556 103.8 242.654 103.733 243.748 103.722 C 235.128 101.748 228.359 95.1105 225.162 86.8651 C 224.586 85.3906 224.126 83.867 223.774 82.3311 C 223.65 82.36 223.524 82.3456 223.398 82.2645 C 215.858 77.5267 209.23 75.1294 200.169 75.2568 Z M 212.309 54.203 C 210.058 53.4802 207.79 52.8073 205.542 52.0945 C 204.418 51.7381 203.283 51.385 202.159 51.0286 C 201.624 51.2571 201.583 51.6467 202.022 52.1803 C 201.836 53.1151 202.82 55.5762 202.964 56.6372 C 203.225 58.6121 203.207 60.578 203.208 62.5707 C 203.21 65.5265 203.228 67.8792 204.812 70.6555 C 205.341 71.5699 205.885 72.1911 206.342 72.9182 C 206.644 72.3444 207.626 72.5696 207.446 73.2811 C 207.39 73.5205 207.325 73.7632 207.269 74.0026 C 207.752 74.0569 208.238 74.1211 208.718 74.1986 C 213.533 75.0005 217.952 77.1818 222.013 79.8331 C 215.29 73.7129 210.203 66.0009 207.46 57.3096 C 207.369 57.0289 207.781 56.8959 207.888 57.1601 C 211.401 65.9014 216.381 73.3159 223.302 79.7045 C 222.722 76.0939 222.614 72.3974 222.912 68.7579 C 223.127 66.0639 223.606 63.429 224.114 60.8176 C 220.974 57.1046 216.835 55.6522 212.309 54.203 Z M 231.841 50.0153 C 230.94 49.321 229.794 48.2079 228.743 47.8056 C 226.6 46.9704 227.485 47.2381 227.318 49.3626 C 227.139 51.7236 226.96 54.018 226.485 56.3531 C 225.141 63.0325 223.598 69.5436 224.207 76.4334 C 225.288 88.6623 232.547 100.246 245.102 102.631 C 241.3 99.8522 238.143 96.4324 235.604 92.3148 C 235.371 91.9362 235.596 91.3317 236.097 91.3361 C 238.044 91.3598 239.95 91.5964 241.784 92.0223 C 236.454 83.5583 233.883 73.6157 233.463 63.6751 C 233.452 63.4684 233.765 63.4445 233.79 63.658 C 234.769 74.0933 238.072 83.146 242.958 92.3291 C 247.329 93.5737 251.263 95.9673 254.338 99.4798 C 254.356 99.2967 254.361 99.1068 254.38 98.9236 C 252.975 96.8753 253.735 93.3964 253.57 91.0691 C 253.209 85.9375 252.149 80.8765 250.437 76.0264 C 246.848 65.8149 240.384 56.6546 231.841 50.0153 Z M 267.692 38.1828 C 266.59 35.8372 265.303 33.0535 263.446 31.1845 C 261.833 29.5576 262.219 30.0641 260.845 31.0951 C 260.237 31.5463 259.488 32.8294 259.013 33.3484 C 256.094 36.5618 252.431 39.019 249.43 42.1484 C 244.387 47.4326 242.872 54.2005 244.9 61.196 C 244.991 61.51 244.815 61.7551 244.591 61.8498 C 245.854 63.7002 247.037 65.61 248.085 67.6185 C 250.519 72.2683 252.357 77.2328 253.449 82.3608 C 253.542 82.7848 253.601 83.2085 253.681 83.6257 C 253.638 78.2471 254.146 72.8566 255.12 67.5701 C 256.804 58.4444 261.483 49.7014 261.541 40.3483 C 261.542 40.2816 261.649 40.2692 261.651 40.3459 C 262.064 48.5169 258.147 56.0836 256.412 63.9192 C 254.342 73.2915 254.137 82.6367 254.891 92.1369 C 255.616 82.4797 256.685 72.7555 262.343 64.6042 C 264.879 60.9609 268.025 58.0061 271.525 55.4908 C 271.308 49.4708 270.275 43.6703 267.692 38.1828 Z M 254.545 97.0324 C 254.631 95.9635 254.705 94.8878 254.775 93.8021 C 254.618 93.8307 254.429 93.7591 254.394 93.5488 C 254.382 93.4421 254.373 93.3454 254.36 93.2386 C 254.344 94.5614 254.358 95.9078 254.545 97.0324 Z M 289.562 48.8408 C 288.211 47.4727 288.156 48.0221 286.364 48.8228 C 285.027 49.4209 283.707 50.0358 282.394 50.6708 C 279.75 51.9572 277.149 53.3074 274.669 54.8952 C 269.591 58.1531 265.247 62.2371 262.099 67.4179 C 256.481 76.6858 256.551 88.3893 255.717 98.9787 C 258.552 93.9984 262.702 90.1326 267.832 87.6549 C 273.113 78.3075 278.345 68.9429 283.584 59.565 C 283.719 59.333 284.064 59.5093 283.955 59.7549 C 279.498 69.1129 274.427 78.3256 268.964 87.145 C 269.557 86.8869 270.153 86.6389 270.768 86.4177 C 271.247 86.2519 271.62 86.6851 271.576 87.1312 C 270.884 93.2232 268.119 98.9005 263.233 101.963 C 263.527 101.946 263.827 101.949 264.114 101.945 C 272.695 97.1112 279.957 90.6668 284.856 81.9857 C 287.549 77.2175 289.36 71.9816 290.301 66.5949 C 290.937 62.8683 292.688 51.9938 289.562 48.8408 Z M 305.789 46.7734 C 305.655 45.3994 305.969 44.2458 304.502 43.8231 C 303.817 43.6238 301.06 45.9323 300.497 46.2806 C 297.574 48.1111 294.691 49.9953 291.821 51.9196 C 292.729 60.0083 291.711 68.1434 288.956 75.6003 C 290.025 74.3467 291.193 73.2273 292.44 72.2152 C 296.767 66.8414 299.069 60.3503 300.993 53.7159 C 301.014 53.6428 301.124 53.6737 301.1 53.7368 C 299.453 59.6506 297.838 65.7312 294.368 70.7725 C 297.54 68.6176 301.12 67.0728 304.86 65.9525 C 305.751 59.5524 306.438 53.2737 305.789 46.7734 Z M 304.55 91.0218 C 310.779 83.3721 311.538 73.3053 316.612 65.1323 C 306.176 66.4239 296.399 69.3408 288.986 77.2734 C 288.754 77.5146 288.481 77.4922 288.279 77.3472 C 283.991 87.7796 276.265 96.6992 265.668 101.951 C 267.169 101.998 268.658 102.181 270.126 102.47 C 269.995 102.303 269.97 102.056 270.205 101.925 C 283.39 94.4623 295.292 85.1894 305.766 74.2412 C 305.948 74.0495 306.255 74.3154 306.077 74.5171 C 295.754 85.6932 283.881 95.0897 270.636 102.571 C 270.636 102.571 270.636 102.571 270.626 102.575 C 272.536 102.998 274.425 103.628 276.271 104.47 C 287.182 104.032 297.547 99.6078 304.55 91.0218 Z M 257.095 107.701 C 260.222 108.595 263.444 108.993 266.699 108.672 C 267.774 108.568 275.772 107.212 275.77 105.629 C 275.769 104.322 269.185 103.262 267.836 103.1 C 266.356 102.914 264.889 102.901 263.444 102.992 C 263.424 102.998 263.407 103.015 263.387 103.021 C 263.31 103.057 263.24 103.047 263.173 103.013 C 262.242 103.081 261.311 103.183 260.389 103.348 C 259.287 103.748 258.117 104.038 256.858 104.19 C 256.251 104.265 256.063 103.307 256.648 103.129 C 257.689 102.815 258.721 102.58 259.767 102.386 C 265.845 100.234 269.199 94.3548 270.207 87.9723 C 263.802 90.4854 258.822 95.0737 255.811 101.329 C 255.719 101.525 255.572 101.617 255.415 101.645 C 255.298 101.694 255.174 101.69 255.068 101.602 C 254.902 101.534 254.757 101.393 254.698 101.212 C 251.919 98.1357 247.456 94.3079 242.945 93.0754 C 242.78 93.184 242.56 93.1887 242.409 92.9608 C 242.402 92.9407 242.389 92.934 242.382 92.9139 C 241.304 92.6645 240.224 92.5818 239.166 92.7025 C 237.146 92.9347 237.765 92.7236 238.381 94.2185 C 238.978 95.6532 240.751 97.1616 241.838 98.2608 C 244.207 100.651 246.951 102.554 249.898 104.159 C 250.545 104.515 250.182 105.452 249.473 105.349 C 242.427 104.404 235.681 105.345 229.218 108.054 C 238.341 110.386 247.575 110.314 256.74 107.838 C 256.792 107.722 256.922 107.646 257.095 107.701 Z M 206.397 192.297 C 211.133 186.304 214.625 179.683 213.206 171.694 C 212.462 167.505 210.656 163.737 208.456 160.119 C 207.582 158.685 205.024 153.688 203.594 153.962 C 202.903 154.086 200.193 161.306 199.659 162.398 C 197.961 165.925 196.509 169.595 196.361 173.562 C 196.07 181.031 199.589 187.799 205.268 192.474 C 204.578 190.305 205.898 186.502 205.93 184.542 C 206.019 178.712 205.279 172.96 203.999 167.284 C 203.932 166.974 204.39 166.815 204.467 167.122 C 205.579 171.247 206.367 175.366 206.66 179.634 C 206.816 181.898 206.851 184.167 206.763 186.432 C 206.736 187.105 206.147 190.839 205.887 192.296 C 206.044 192.201 206.238 192.183 206.397 192.297 Z M 209.281 211.097 C 210.617 210.189 211.928 209.2 213.181 208.175 C 212.997 208.323 217.867 204.391 217.825 203.817 C 217.708 201.807 208.07 202.342 206.532 202.419 C 202.28 202.641 198.126 203.475 194.045 204.705 C 193.761 204.786 193.543 204.624 193.471 204.404 C 187.532 208.527 181.366 212.259 175.049 215.729 C 175.584 215.567 176.126 215.425 176.654 215.277 C 176.6 215.073 176.655 214.833 176.897 214.722 C 186.403 210.453 196.381 208.158 206.76 207.516 C 207.031 207.495 207.053 207.908 206.783 207.929 C 197.323 208.673 188.296 210.96 179.563 214.536 C 184.019 213.505 188.574 212.952 193.106 213.424 C 195.961 213.719 198.743 214.437 201.34 215.646 C 204.048 214.217 206.747 212.824 209.281 211.097 Z M 212.119 223.544 C 206.299 221.041 201.992 216.221 195.446 214.938 C 186.807 213.246 178.465 216.009 170.232 218.316 C 169.796 218.545 169.36 218.775 168.924 219.004 C 180.188 232.449 197.577 228.799 212.119 223.544 Z M 135.427 233.11 C 140.8 225.383 145.09 217.153 148.611 208.43 C 148.714 208.164 149.186 208.322 149.087 208.597 C 146.002 217.368 141.685 225.551 136.433 233.206 C 138.544 232.224 140.654 231.243 142.745 230.268 C 143.361 229.981 143.988 229.689 144.604 229.402 C 144.611 229.388 144.618 229.375 144.624 229.362 C 150.022 223.321 155.2 218.934 156.504 210.418 C 157.087 206.631 156.967 202.795 156.656 198.987 C 156.623 198.61 156.667 195.318 155.972 195.089 C 155.909 195.065 153.774 197.205 153.445 197.489 C 148.2 202.185 142.201 205.918 138.659 212.212 C 135.083 218.605 134.076 225.984 135.427 233.11 Z M 150.013 253.508 C 144 252.019 139.618 247.002 133.465 245.802 C 124.829 244.121 115.031 247.487 106.979 250.699 C 116.333 252.957 125.839 253.693 135.453 252.911 C 135.68 252.893 135.69 253.233 135.476 253.257 C 125.572 254.444 115.881 253.856 106.194 251.528 C 118.302 263.814 136.437 263.156 150.013 253.508 Z" stroke-linecap="round" />
</g>
		<g transform="matrix(1 0 0 1 25.85 -123.18)" clip-path="url(#CLIPPATH_10)"  >
<clipPath id="CLIPPATH_10" >
	<rect transform="matrix(-0.95 0.31 0.31 0.95 -34.06 109.38)" id="clip0_1_11503" x="-165.19" y="-98.09" rx="0" ry="0" width="330.38" height="196.18" />
</clipPath>
<path style="stroke: none; stroke-width: 1; stroke-dasharray: none; stroke-linecap: butt; stroke-dashoffset: 0; stroke-linejoin: miter; stroke-miterlimit: 4; fill: rgb(68,67,81); fill-rule: nonzero; opacity: 1;" vector-effect="non-scaling-stroke"  transform=" translate(-221.41, -34.75)" d="M 217.102 33.8414 C 217.636 31.6534 219.624 29.9147 221.964 30.3651 C 224.361 30.8192 226.306 33.3021 225.756 35.7499 C 225.704 35.966 225.572 36.0748 225.432 36.1202 C 225.491 36.2341 225.513 36.3709 225.451 36.5236 C 224.647 38.7325 222.013 39.6725 219.844 39.0004 C 217.616 38.3145 216.567 36.0294 217.102 33.8414 Z M 224.628 36.1032 C 224.686 36.0071 224.766 35.9478 224.844 35.9118 C 224.778 35.8113 224.726 35.6842 224.744 35.5344 C 224.928 33.6699 223.635 31.7959 221.71 31.4991 C 219.891 31.2233 218.503 32.724 218.24 34.4145 C 217.64 38.318 222.883 39.037 224.628 36.1032 Z" stroke-linecap="round" />
</g>
		<g transform="matrix(1 0 0 1 -12.69 -92.7)" clip-path="url(#CLIPPATH_11)"  >
<clipPath id="CLIPPATH_11" >
	<rect transform="matrix(-0.95 0.31 0.31 0.95 4.48 78.89)" id="clip0_1_11503" x="-165.19" y="-98.09" rx="0" ry="0" width="330.38" height="196.18" />
</clipPath>
<path style="stroke: none; stroke-width: 1; stroke-dasharray: none; stroke-linecap: butt; stroke-dashoffset: 0; stroke-linejoin: miter; stroke-miterlimit: 4; fill: rgb(68,67,81); fill-rule: nonzero; opacity: 1;" vector-effect="non-scaling-stroke"  transform=" translate(-182.87, -65.24)" d="M 181.805 61.1071 C 183.924 60.6658 186.507 61.9013 187.017 64.0951 C 187.158 64.7028 186.324 65.0054 186.086 64.4069 C 184.737 61.0228 179.382 61.5691 179.858 65.5786 C 180.337 69.6315 185.731 68.7957 186.415 65.2861 C 186.468 65.0033 186.921 65.034 186.925 65.3206 C 186.981 67.517 185.093 69.2566 182.96 69.4479 C 180.74 69.6451 179.032 67.894 178.739 65.7855 C 178.458 63.6837 179.636 61.5646 181.805 61.1071 Z" stroke-linecap="round" />
</g>
		<g transform="matrix(1 0 0 1 -11.43 62.25)" clip-path="url(#CLIPPATH_12)"  >
<clipPath id="CLIPPATH_12" >
	<rect transform="matrix(-0.95 0.31 0.31 0.95 3.22 -76.05)" id="clip0_1_11503" x="-165.19" y="-98.09" rx="0" ry="0" width="330.38" height="196.18" />
</clipPath>
<path style="stroke: none; stroke-width: 1; stroke-dasharray: none; stroke-linecap: butt; stroke-dashoffset: 0; stroke-linejoin: miter; stroke-miterlimit: 4; fill: rgb(68,67,81); fill-rule: nonzero; opacity: 1;" vector-effect="non-scaling-stroke"  transform=" translate(-184.13, -220.18)" d="M 170.032 219.001 C 179.507 220.81 188.923 221.232 198.507 220.05 C 198.73 220.022 198.754 220.368 198.533 220.406 C 188.957 221.852 179.365 221.708 169.874 219.782 C 169.365 219.681 169.526 218.91 170.032 219.001 Z" stroke-linecap="round" />
</g>
</g>
</g>
<g transform="matrix(1 0 0 1 693.9 521.73)"  >
<g style="" vector-effect="non-scaling-stroke"   >
		<g transform="matrix(1 0 0 1 0 0)" clip-path="url(#CLIPPATH_13)"  >
<clipPath id="CLIPPATH_13" >
	<rect transform="matrix(-0.95 0.31 0.31 0.95 -8.21 -13.79)" id="clip0_1_11503" x="-165.1875" y="-98.0895" rx="0" ry="0" width="330.375" height="196.179" />
</clipPath>
<path style="stroke: none; stroke-width: 1; stroke-dasharray: none; stroke-linecap: butt; stroke-dashoffset: 0; stroke-linejoin: miter; stroke-miterlimit: 4; fill: rgb(68,67,81); fill-rule: nonzero; opacity: 1;" vector-effect="non-scaling-stroke"  transform=" translate(-195.56, -157.93)" d="M 60.25 287.318 C 78.3635 261.698 106.853 247.052 134.701 234.02 C 133.032 226.698 133.844 219.161 137.383 212.447 C 141.761 204.145 150.087 199.826 156.251 193.105 C 156.595 192.728 157.203 192.963 157.252 193.457 C 158.003 200.478 158.787 207.776 156.688 214.655 C 154.849 220.697 150.77 224.264 146.557 228.516 C 162.929 220.898 179.274 212.99 194.016 202.489 C 197.982 199.668 201.79 196.632 205.469 193.439 C 205.523 193.366 205.58 193.303 205.634 193.23 C 205.578 193.16 205.539 193.073 205.49 192.989 C 205.417 193.345 204.964 193.624 204.583 193.338 C 199.089 189.134 195.667 182.767 195.236 175.842 C 194.682 166.963 200.308 160.018 203.043 151.981 C 203.204 151.519 203.772 151.357 204.085 151.777 C 209.097 158.605 214.635 166.271 214.701 175.119 C 214.746 180.674 212.413 185.735 209.189 190.133 C 209.64 189.71 210.078 189.281 210.519 188.861 C 216.154 181.636 219.168 173.332 219.972 164.125 C 219.991 163.909 220.344 163.938 220.345 164.148 C 220.361 171.64 218.202 178.815 214.354 185.086 C 217.156 182.231 219.862 179.286 222.439 176.216 C 224.469 170.013 225.746 163.742 225.531 157.146 C 225.372 152.436 224.652 153.499 221.633 156.336 C 218.564 159.221 214.531 162.075 214.244 166.674 C 214.216 167.204 213.401 167.29 213.397 166.727 C 213.298 160.248 221.058 155.414 225.208 151.515 C 225.548 151.195 226.076 151.356 226.132 151.836 C 227.092 159.676 226.383 167.6 223.499 174.933 C 225.871 172.051 228.15 169.088 230.31 166.032 C 233.295 161.822 235.955 157.497 238.378 153.093 C 238.921 151.722 239.604 150.438 240.426 149.242 C 246.933 136.553 251.642 123.172 256.239 109.373 C 246.523 111.827 236.742 111.645 227.096 108.828 C 227.009 108.801 226.933 108.77 226.873 108.723 C 206.472 106.382 190.503 91.1038 184.954 71.5715 C 184.758 70.86 185.526 70.4235 186.086 70.8183 C 191.261 74.5157 197.281 73.7986 203.238 73.8108 C 198.393 70.1062 193.418 67.5402 187.341 66.0608 C 186.859 65.9399 187.012 65.2148 187.509 65.3092 C 193.675 66.4494 199.791 69.422 204.319 73.8269 C 204.699 73.8369 205.069 73.8501 205.449 73.8601 C 204.192 70.6901 202.18 68.9597 201.923 65.0787 C 201.566 59.8239 201.753 55.1904 199.977 50.0731 C 199.831 49.6553 200.24 49.1024 200.699 49.253 C 208.214 51.6513 219.036 53.2355 224.287 59.8427 C 225.212 55.159 226.15 50.5153 225.806 45.6105 C 225.773 45.1337 226.334 44.7088 226.776 44.9759 C 232.188 48.2755 236.969 52.3994 241.006 57.1732 C 237.502 49.2151 232.568 42.3174 226.231 36.2272 C 225.97 35.9684 226.334 35.5517 226.616 35.8041 C 233.547 42.0894 238.727 49.8489 242.117 58.5192 C 242.566 59.0829 243.017 59.6567 243.449 60.237 C 241.981 54.9425 242.711 49.314 245.777 44.6356 C 250.001 38.188 257.533 34.9116 261.264 28.0364 C 261.431 27.728 261.929 27.5557 262.193 27.8579 C 268.813 35.3735 272.738 44.9448 272.173 55.0266 C 272.418 54.8588 272.666 54.7011 272.911 54.5333 C 272.879 54.433 272.866 54.3263 272.918 54.2101 C 275.754 47.3471 280.065 41.5133 285.704 36.7675 C 283.721 36.5669 282.721 34.0556 283.315 32.2914 C 284.104 29.9657 287.179 28.573 289.477 29.2696 C 291.592 29.9146 292.308 32.54 291.323 34.3974 C 290.505 35.9131 288.718 36.524 287.079 36.2564 C 281.448 41.0222 277.062 46.9686 274.136 53.7276 C 279.116 50.5788 284.622 48.1344 289.998 45.7989 C 290.299 45.6682 290.744 45.8787 290.815 46.1992 C 291.151 47.6517 291.404 49.1201 291.614 50.5915 C 296.145 47.5654 300.749 44.66 305.435 41.8719 C 305.844 41.6289 306.282 41.886 306.348 42.3297 C 307.572 50.0613 307.665 58.2029 305.472 65.7879 C 305.93 65.662 306.395 65.5561 306.843 65.4334 C 310.967 60.0145 316.384 55.75 322.794 53.3568 C 321.858 52.4522 321.728 50.7117 322.362 49.5876 C 323.53 47.5051 326.603 47.3087 328.522 48.3385 C 330.4 49.348 331.821 51.7563 330.355 53.7029 C 328.572 56.0732 325.462 55.0963 323.251 54.0506 C 323.198 54.0235 323.155 53.9931 323.122 53.9595 C 323.112 53.9627 323.095 53.9792 323.085 53.9825 C 317.26 56.5407 312.279 60.166 308.317 65.0564 C 311.547 64.3116 314.833 63.8138 318.035 63.4653 C 318.743 63.3915 318.975 64.2133 318.634 64.7001 C 314.79 70.1281 313.609 76.5557 311.157 82.619 C 309.21 87.4338 306.291 91.7435 302.511 95.3127 C 295.841 101.599 286.889 105.423 277.711 105.322 C 277.832 105.56 277.802 105.88 277.541 106.031 C 271.409 109.729 264.505 110.665 257.684 108.629 C 257.655 108.849 257.516 109.038 257.242 109.115 C 257.182 109.135 257.118 109.144 257.058 109.164 C 253.305 121.627 249.404 133.772 243.914 145.391 C 245.236 144.266 246.689 143.276 248.294 142.48 C 251.414 140.918 254.874 140.098 258.336 139.799 C 263.353 139.373 268.34 140.806 273.312 140.14 C 273.706 140.09 274.005 140.569 273.812 140.897 C 270.404 146.782 266.727 152.931 260.496 156.186 C 253.494 159.833 245.14 159.3 237.538 158.624 C 236.992 158.579 237.054 157.607 237.611 157.648 C 243.985 158.024 250.767 158.6 256.921 156.478 C 260.689 155.171 263.738 152.978 266.394 150.049 C 267.267 149.08 272.526 143.228 272.032 141.871 C 271.762 141.139 265.733 140.973 265.173 140.921 C 261.751 140.588 258.429 140.599 255.047 141.249 C 250.202 142.173 245.901 144.405 242.761 147.79 C 241.299 150.743 239.723 153.655 238.025 156.529 C 244.152 152.677 250.766 149.853 257.625 147.58 C 257.866 147.502 257.996 147.87 257.755 147.948 C 250.929 150.287 244.588 153.511 238.389 157.175 C 238.121 157.339 237.853 157.127 237.822 156.894 C 237.686 157.126 237.55 157.358 237.412 157.58 C 229.019 171.399 218.497 183.913 206.269 194.509 C 202.527 197.745 198.652 200.747 194.663 203.564 C 202.784 201.183 211.046 200.815 219.369 202.454 C 219.726 202.527 219.885 202.985 219.629 203.256 C 214.708 208.612 208.797 213.268 201.978 215.938 C 202.027 215.955 202.067 215.975 202.12 216.002 C 206.22 218.121 209.423 221.481 213.868 222.99 C 214.394 223.174 214.517 223.898 213.934 224.12 C 199.782 229.414 178.467 234.909 168.589 219.168 C 148.763 229.441 127.811 237.809 108.315 248.695 C 107.742 249.013 107.182 249.338 106.612 249.666 C 114.213 246.19 123.539 243.696 131.868 244.359 C 139.387 244.951 144.355 251.506 151.713 252.526 C 152.306 252.612 152.349 253.395 151.939 253.705 C 137.784 264.581 116.546 266.131 104.644 251.055 C 104.588 250.985 104.575 250.911 104.586 250.841 C 87.9002 260.575 72.6454 272.405 60.9774 287.991 C 60.6058 288.488 59.8949 287.832 60.25 287.318 Z M 289.951 34.1655 C 290.815 33.1334 290.649 31.2492 289.361 30.6248 C 287.867 29.9119 285.553 30.8814 284.749 32.2373 C 284.142 33.275 284.402 34.3869 285.139 35.1231 C 285.187 34.9302 285.369 34.7719 285.589 34.8338 C 287.039 35.273 288.865 35.4689 289.951 34.1655 Z M 324.308 52.9669 C 324.517 53.0986 324.585 53.3092 324.56 53.5055 C 325.893 53.9604 327.428 54.3171 328.656 53.5547 C 330.4 52.4703 329.622 50.4741 328.139 49.5914 C 326.999 48.9084 325.345 48.7673 324.194 49.5269 C 322.862 50.4117 323.025 52.1525 324.308 52.9669 Z M 200.169 75.2568 C 195.389 75.3183 190.951 75.1695 186.853 72.9177 C 192.733 91.3133 207.662 104.436 226.674 107.968 C 226.735 107.816 226.853 107.667 227.044 107.572 C 231.095 105.664 235.235 104.481 239.476 103.985 C 223.581 98.471 206.538 91.7006 194.593 79.44 C 194.342 79.1779 194.689 78.7777 194.967 79.0201 C 208.413 90.6074 224.02 96.5687 240.275 103.062 C 240.631 103.202 240.644 103.619 240.467 103.897 C 241.556 103.8 242.654 103.733 243.748 103.722 C 235.128 101.748 228.359 95.1105 225.162 86.8651 C 224.586 85.3906 224.126 83.867 223.774 82.3311 C 223.65 82.36 223.524 82.3456 223.398 82.2645 C 215.858 77.5267 209.23 75.1294 200.169 75.2568 Z M 212.309 54.203 C 210.058 53.4802 207.79 52.8073 205.542 52.0945 C 204.418 51.7381 203.283 51.385 202.159 51.0286 C 201.624 51.2571 201.583 51.6467 202.022 52.1803 C 201.836 53.1151 202.82 55.5762 202.964 56.6372 C 203.225 58.6121 203.207 60.578 203.208 62.5707 C 203.21 65.5265 203.228 67.8792 204.812 70.6555 C 205.341 71.5699 205.885 72.1911 206.342 72.9182 C 206.644 72.3444 207.626 72.5696 207.446 73.2811 C 207.39 73.5205 207.325 73.7632 207.269 74.0026 C 207.752 74.0569 208.238 74.1211 208.718 74.1986 C 213.533 75.0005 217.952 77.1818 222.013 79.8331 C 215.29 73.7129 210.203 66.0009 207.46 57.3096 C 207.369 57.0289 207.781 56.8959 207.888 57.1601 C 211.401 65.9014 216.381 73.3159 223.302 79.7045 C 222.722 76.0939 222.614 72.3974 222.912 68.7579 C 223.127 66.0639 223.606 63.429 224.114 60.8176 C 220.974 57.1046 216.835 55.6522 212.309 54.203 Z M 231.841 50.0153 C 230.94 49.321 229.794 48.2079 228.743 47.8056 C 226.6 46.9704 227.485 47.2381 227.318 49.3626 C 227.139 51.7236 226.96 54.018 226.485 56.3531 C 225.141 63.0325 223.598 69.5436 224.207 76.4334 C 225.288 88.6623 232.547 100.246 245.102 102.631 C 241.3 99.8522 238.143 96.4324 235.604 92.3148 C 235.371 91.9362 235.596 91.3317 236.097 91.3361 C 238.044 91.3598 239.95 91.5964 241.784 92.0223 C 236.454 83.5583 233.883 73.6157 233.463 63.6751 C 233.452 63.4684 233.765 63.4445 233.79 63.658 C 234.769 74.0933 238.072 83.146 242.958 92.3291 C 247.329 93.5737 251.263 95.9673 254.338 99.4798 C 254.356 99.2967 254.361 99.1068 254.38 98.9236 C 252.975 96.8753 253.735 93.3964 253.57 91.0691 C 253.209 85.9375 252.149 80.8765 250.437 76.0264 C 246.848 65.8149 240.384 56.6546 231.841 50.0153 Z M 267.692 38.1828 C 266.59 35.8372 265.303 33.0535 263.446 31.1845 C 261.833 29.5576 262.219 30.0641 260.845 31.0951 C 260.237 31.5463 259.488 32.8294 259.013 33.3484 C 256.094 36.5618 252.431 39.019 249.43 42.1484 C 244.387 47.4326 242.872 54.2005 244.9 61.196 C 244.991 61.51 244.815 61.7551 244.591 61.8498 C 245.854 63.7002 247.037 65.61 248.085 67.6185 C 250.519 72.2683 252.357 77.2328 253.449 82.3608 C 253.542 82.7848 253.601 83.2085 253.681 83.6257 C 253.638 78.2471 254.146 72.8566 255.12 67.5701 C 256.804 58.4444 261.483 49.7014 261.541 40.3483 C 261.542 40.2816 261.649 40.2692 261.651 40.3459 C 262.064 48.5169 258.147 56.0836 256.412 63.9192 C 254.342 73.2915 254.137 82.6367 254.891 92.1369 C 255.616 82.4797 256.685 72.7555 262.343 64.6042 C 264.879 60.9609 268.025 58.0061 271.525 55.4908 C 271.308 49.4708 270.275 43.6703 267.692 38.1828 Z M 254.545 97.0324 C 254.631 95.9635 254.705 94.8878 254.775 93.8021 C 254.618 93.8307 254.429 93.7591 254.394 93.5488 C 254.382 93.4421 254.373 93.3454 254.36 93.2386 C 254.344 94.5614 254.358 95.9078 254.545 97.0324 Z M 289.562 48.8408 C 288.211 47.4727 288.156 48.0221 286.364 48.8228 C 285.027 49.4209 283.707 50.0358 282.394 50.6708 C 279.75 51.9572 277.149 53.3074 274.669 54.8952 C 269.591 58.1531 265.247 62.2371 262.099 67.4179 C 256.481 76.6858 256.551 88.3893 255.717 98.9787 C 258.552 93.9984 262.702 90.1326 267.832 87.6549 C 273.113 78.3075 278.345 68.9429 283.584 59.565 C 283.719 59.333 284.064 59.5093 283.955 59.7549 C 279.498 69.1129 274.427 78.3256 268.964 87.145 C 269.557 86.8869 270.153 86.6389 270.768 86.4177 C 271.247 86.2519 271.62 86.6851 271.576 87.1312 C 270.884 93.2232 268.119 98.9005 263.233 101.963 C 263.527 101.946 263.827 101.949 264.114 101.945 C 272.695 97.1112 279.957 90.6668 284.856 81.9857 C 287.549 77.2175 289.36 71.9816 290.301 66.5949 C 290.937 62.8683 292.688 51.9938 289.562 48.8408 Z M 305.789 46.7734 C 305.655 45.3994 305.969 44.2458 304.502 43.8231 C 303.817 43.6238 301.06 45.9323 300.497 46.2806 C 297.574 48.1111 294.691 49.9953 291.821 51.9196 C 292.729 60.0083 291.711 68.1434 288.956 75.6003 C 290.025 74.3467 291.193 73.2273 292.44 72.2152 C 296.767 66.8414 299.069 60.3503 300.993 53.7159 C 301.014 53.6428 301.124 53.6737 301.1 53.7368 C 299.453 59.6506 297.838 65.7312 294.368 70.7725 C 297.54 68.6176 301.12 67.0728 304.86 65.9525 C 305.751 59.5524 306.438 53.2737 305.789 46.7734 Z M 304.55 91.0218 C 310.779 83.3721 311.538 73.3053 316.612 65.1323 C 306.176 66.4239 296.399 69.3408 288.986 77.2734 C 288.754 77.5146 288.481 77.4922 288.279 77.3472 C 283.991 87.7796 276.265 96.6992 265.668 101.951 C 267.169 101.998 268.658 102.181 270.126 102.47 C 269.995 102.303 269.97 102.056 270.205 101.925 C 283.39 94.4623 295.292 85.1894 305.766 74.2412 C 305.948 74.0495 306.255 74.3154 306.077 74.5171 C 295.754 85.6932 283.881 95.0897 270.636 102.571 C 270.636 102.571 270.636 102.571 270.626 102.575 C 272.536 102.998 274.425 103.628 276.271 104.47 C 287.182 104.032 297.547 99.6078 304.55 91.0218 Z M 257.095 107.701 C 260.222 108.595 263.444 108.993 266.699 108.672 C 267.774 108.568 275.772 107.212 275.77 105.629 C 275.769 104.322 269.185 103.262 267.836 103.1 C 266.356 102.914 264.889 102.901 263.444 102.992 C 263.424 102.998 263.407 103.015 263.387 103.021 C 263.31 103.057 263.24 103.047 263.173 103.013 C 262.242 103.081 261.311 103.183 260.389 103.348 C 259.287 103.748 258.117 104.038 256.858 104.19 C 256.251 104.265 256.063 103.307 256.648 103.129 C 257.689 102.815 258.721 102.58 259.767 102.386 C 265.845 100.234 269.199 94.3548 270.207 87.9723 C 263.802 90.4854 258.822 95.0737 255.811 101.329 C 255.719 101.525 255.572 101.617 255.415 101.645 C 255.298 101.694 255.174 101.69 255.068 101.602 C 254.902 101.534 254.757 101.393 254.698 101.212 C 251.919 98.1357 247.456 94.3079 242.945 93.0754 C 242.78 93.184 242.56 93.1887 242.409 92.9608 C 242.402 92.9407 242.389 92.934 242.382 92.9139 C 241.304 92.6645 240.224 92.5818 239.166 92.7025 C 237.146 92.9347 237.765 92.7236 238.381 94.2185 C 238.978 95.6532 240.751 97.1616 241.838 98.2608 C 244.207 100.651 246.951 102.554 249.898 104.159 C 250.545 104.515 250.182 105.452 249.473 105.349 C 242.427 104.404 235.681 105.345 229.218 108.054 C 238.341 110.386 247.575 110.314 256.74 107.838 C 256.792 107.722 256.922 107.646 257.095 107.701 Z M 206.397 192.297 C 211.133 186.304 214.625 179.683 213.206 171.694 C 212.462 167.505 210.656 163.737 208.456 160.119 C 207.582 158.685 205.024 153.688 203.594 153.962 C 202.903 154.086 200.193 161.306 199.659 162.398 C 197.961 165.925 196.509 169.595 196.361 173.562 C 196.07 181.031 199.589 187.799 205.268 192.474 C 204.578 190.305 205.898 186.502 205.93 184.542 C 206.019 178.712 205.279 172.96 203.999 167.284 C 203.932 166.974 204.39 166.815 204.467 167.122 C 205.579 171.247 206.367 175.366 206.66 179.634 C 206.816 181.898 206.851 184.167 206.763 186.432 C 206.736 187.105 206.147 190.839 205.887 192.296 C 206.044 192.201 206.238 192.183 206.397 192.297 Z M 209.281 211.097 C 210.617 210.189 211.928 209.2 213.181 208.175 C 212.997 208.323 217.867 204.391 217.825 203.817 C 217.708 201.807 208.07 202.342 206.532 202.419 C 202.28 202.641 198.126 203.475 194.045 204.705 C 193.761 204.786 193.543 204.624 193.471 204.404 C 187.532 208.527 181.366 212.259 175.049 215.729 C 175.584 215.567 176.126 215.425 176.654 215.277 C 176.6 215.073 176.655 214.833 176.897 214.722 C 186.403 210.453 196.381 208.158 206.76 207.516 C 207.031 207.495 207.053 207.908 206.783 207.929 C 197.323 208.673 188.296 210.96 179.563 214.536 C 184.019 213.505 188.574 212.952 193.106 213.424 C 195.961 213.719 198.743 214.437 201.34 215.646 C 204.048 214.217 206.747 212.824 209.281 211.097 Z M 212.119 223.544 C 206.299 221.041 201.992 216.221 195.446 214.938 C 186.807 213.246 178.465 216.009 170.232 218.316 C 169.796 218.545 169.36 218.775 168.924 219.004 C 180.188 232.449 197.577 228.799 212.119 223.544 Z M 135.427 233.11 C 140.8 225.383 145.09 217.153 148.611 208.43 C 148.714 208.164 149.186 208.322 149.087 208.597 C 146.002 217.368 141.685 225.551 136.433 233.206 C 138.544 232.224 140.654 231.243 142.745 230.268 C 143.361 229.981 143.988 229.689 144.604 229.402 C 144.611 229.388 144.618 229.375 144.624 229.362 C 150.022 223.321 155.2 218.934 156.504 210.418 C 157.087 206.631 156.967 202.795 156.656 198.987 C 156.623 198.61 156.667 195.318 155.972 195.089 C 155.909 195.065 153.774 197.205 153.445 197.489 C 148.2 202.185 142.201 205.918 138.659 212.212 C 135.083 218.605 134.076 225.984 135.427 233.11 Z M 150.013 253.508 C 144 252.019 139.618 247.002 133.465 245.802 C 124.829 244.121 115.031 247.487 106.979 250.699 C 116.333 252.957 125.839 253.693 135.453 252.911 C 135.68 252.893 135.69 253.233 135.476 253.257 C 125.572 254.444 115.881 253.856 106.194 251.528 C 118.302 263.814 136.437 263.156 150.013 253.508 Z" stroke-linecap="round" />
</g>
		<g transform="matrix(1 0 0 1 25.85 -123.18)" clip-path="url(#CLIPPATH_14)"  >
<clipPath id="CLIPPATH_14" >
	<rect transform="matrix(-0.95 0.31 0.31 0.95 -34.06 109.39)" id="clip0_1_11503" x="-165.1875" y="-98.0895" rx="0" ry="0" width="330.375" height="196.179" />
</clipPath>
<path style="stroke: none; stroke-width: 1; stroke-dasharray: none; stroke-linecap: butt; stroke-dashoffset: 0; stroke-linejoin: miter; stroke-miterlimit: 4; fill: rgb(68,67,81); fill-rule: nonzero; opacity: 1;" vector-effect="non-scaling-stroke"  transform=" translate(-221.41, -34.75)" d="M 217.102 33.8414 C 217.636 31.6534 219.624 29.9147 221.964 30.3651 C 224.361 30.8192 226.306 33.3021 225.756 35.7499 C 225.704 35.966 225.572 36.0748 225.432 36.1202 C 225.491 36.2341 225.513 36.3709 225.451 36.5236 C 224.647 38.7325 222.013 39.6725 219.844 39.0004 C 217.616 38.3145 216.567 36.0294 217.102 33.8414 Z M 224.628 36.1032 C 224.686 36.0071 224.766 35.9478 224.844 35.9118 C 224.778 35.8113 224.726 35.6842 224.744 35.5344 C 224.928 33.6699 223.635 31.7959 221.71 31.4991 C 219.891 31.2233 218.503 32.724 218.24 34.4145 C 217.64 38.318 222.883 39.037 224.628 36.1032 Z" stroke-linecap="round" />
</g>
		<g transform="matrix(1 0 0 1 -12.69 -92.69)" clip-path="url(#CLIPPATH_15)"  >
<clipPath id="CLIPPATH_15" >
	<rect transform="matrix(-0.95 0.31 0.31 0.95 4.48 78.9)" id="clip0_1_11503" x="-165.1875" y="-98.0895" rx="0" ry="0" width="330.375" height="196.179" />
</clipPath>
<path style="stroke: none; stroke-width: 1; stroke-dasharray: none; stroke-linecap: butt; stroke-dashoffset: 0; stroke-linejoin: miter; stroke-miterlimit: 4; fill: rgb(68,67,81); fill-rule: nonzero; opacity: 1;" vector-effect="non-scaling-stroke"  transform=" translate(-182.87, -65.24)" d="M 181.805 61.1071 C 183.924 60.6658 186.507 61.9013 187.017 64.0951 C 187.158 64.7028 186.324 65.0054 186.086 64.4069 C 184.737 61.0228 179.382 61.5691 179.858 65.5786 C 180.337 69.6315 185.731 68.7957 186.415 65.2861 C 186.468 65.0033 186.921 65.034 186.925 65.3206 C 186.981 67.517 185.093 69.2566 182.96 69.4479 C 180.74 69.6451 179.032 67.894 178.739 65.7855 C 178.458 63.6837 179.636 61.5646 181.805 61.1071 Z" stroke-linecap="round" />
</g>
		<g transform="matrix(1 0 0 1 -11.43 62.25)" clip-path="url(#CLIPPATH_16)"  >
<clipPath id="CLIPPATH_16" >
	<rect transform="matrix(-0.95 0.31 0.31 0.95 3.22 -76.04)" id="clip0_1_11503" x="-165.1875" y="-98.0895" rx="0" ry="0" width="330.375" height="196.179" />
</clipPath>
<path style="stroke: none; stroke-width: 1; stroke-dasharray: none; stroke-linecap: butt; stroke-dashoffset: 0; stroke-linejoin: miter; stroke-miterlimit: 4; fill: rgb(68,67,81); fill-rule: nonzero; opacity: 1;" vector-effect="non-scaling-stroke"  transform=" translate(-184.13, -220.18)" d="M 170.032 219.001 C 179.507 220.81 188.923 221.232 198.507 220.05 C 198.73 220.022 198.754 220.368 198.533 220.406 C 188.957 221.852 179.365 221.708 169.874 219.782 C 169.365 219.681 169.526 218.91 170.032 219.001 Z" stroke-linecap="round" />
</g>
</g>
</g>
</svg>